<?xml version="1.0" encoding="UTF-8" standalone="no"?>
<!-- Created with Inkscape (http://www.inkscape.org/) -->

<svg
   xmlns:dc="http://purl.org/dc/elements/1.1/"
   xmlns:cc="http://creativecommons.org/ns#"
   xmlns:rdf="http://www.w3.org/1999/02/22-rdf-syntax-ns#"
   xmlns:svg="http://www.w3.org/2000/svg"
   xmlns="http://www.w3.org/2000/svg"
   xmlns:sodipodi="http://sodipodi.sourceforge.net/DTD/sodipodi-0.dtd"
   xmlns:inkscape="http://www.inkscape.org/namespaces/inkscape"
   width="210mm"
   height="297mm"
   viewBox="0 0 744.09448 1052.3622"
   id="svg4220"
   version="1.1"
   inkscape:version="0.91 r13725"
   sodipodi:docname="ATMOSCAN 2mm.svg">
  <defs
     id="defs4222" />
  <sodipodi:namedview
     id="base"
     pagecolor="#ffffff"
     bordercolor="#666666"
     borderopacity="1.0"
     inkscape:pageopacity="0.0"
     inkscape:pageshadow="2"
     inkscape:zoom="0.41731876"
     inkscape:cx="226.82387"
     inkscape:cy="555.00429"
     inkscape:document-units="px"
     inkscape:current-layer="layer1"
     showgrid="false"
     inkscape:window-width="1440"
     inkscape:window-height="817"
     inkscape:window-x="0"
     inkscape:window-y="1"
     inkscape:window-maximized="1" />
  <metadata
     id="metadata4225">
    <rdf:RDF>
      <cc:Work
         rdf:about="">
        <dc:format>image/svg+xml</dc:format>
        <dc:type
           rdf:resource="http://purl.org/dc/dcmitype/StillImage" />
        <dc:title></dc:title>
      </cc:Work>
    </rdf:RDF>
  </metadata>
  <g
     inkscape:label="Layer 1"
     inkscape:groupmode="layer"
     id="layer1"
     transform="translate(0,3.1834646e-4)">
    <path
       d="m 30.581437,919.34586 2.2e-4,108.07004 49.6063,-0.028 0,10.6299 88.582683,0 0,-10.6299 60.2362,0 0,10.6299 88.58268,0 0,-10.6299 49.60623,0.028 2.2e-4,-108.07004 10.62992,0 0,-88.58292 -10.62992,0 -8e-5,-108.07161 -49.60637,-7e-5 0,-10.62993 -88.58268,0 0,10.62993 -60.23632,0 0,-10.62993 -88.582693,0 0,10.62993 -49.60632,7e-5 -7e-5,108.07185 -10.62993,0 10e-6,88.58268 10.62992,0 m 326.957773,-180.28123 0.42881,2.74163 -0.0397,56.61852 -0.0142,0.1232 -0.28205,2.636 -0.99946,2.58873 -1.63542,2.24184 -2.15989,1.74219 -2.53725,1.12379 -2.74164,0.42881 -80.69839,0.0621 -2.85346,-0.28063 -2.58874,-0.99945 -2.24184,-1.63541 -1.74218,-2.15991 -1.1238,-2.53723 -0.42881,-2.74163 0,-56.71391 0.29537,-2.7592 0.99945,-2.58873 1.63541,-2.24185 2.15992,-1.74218 2.53723,-1.12379 2.74163,-0.42881 76.70485,0.0131 0.9613,-0.12008 3.16623,0.12554 2.75917,0.29537 2.58874,0.99945 2.24185,1.63541 1.74218,2.15991 1.12379,2.53723 m -310.616823,35.70935 -1.28186,-0.53096 -1.10077,-0.84464 -0.84464,-1.10077 -0.53098,-1.28186 -0.18109,-1.37561 0.18109,-1.37562 0.53097,-1.28187 0.84464,-1.10076 1.10076,-0.84465 1.28187,-0.53097 1.37562,-0.1811 1.37561,0.1811 1.28187,0.53097 1.10076,0.84464 0.84465,1.10076 0.53097,1.28187 0.1811,1.37561 -0.1811,1.37561 -0.53096,1.28187 -0.84465,1.10077 -1.10076,0.84465 -1.28187,0.53096 -1.37561,0.1811 -1.37562,-0.1811 m 298.985863,201.74641 1.14052,-0.79013 1.30617,-0.46803 1.38281,-0.11402 1.36517,0.24775 1.25454,0.59265 1.05839,0.89716 0.79015,1.14052 0.46804,1.30617 0.11409,1.38279 -0.24767,1.36518 -0.59266,1.25454 -0.89716,1.0584 -1.14052,0.79014 -1.30617,0.46802 -1.38278,0.11403 -1.3652,-0.24775 -1.25454,-0.59266 -1.05839,-0.89715 -0.79015,-1.14053 -0.468,-1.30616 -0.1141,-1.38279 0.24768,-1.36518 0.59265,-1.25454 0.89717,-1.05841 m -286.980443,17.20565 0,-251.5466 180.708843,0 0,251.5466 -180.708843,0 m -15.23266,-15.92662 0.84465,-1.10077 1.10076,-0.84465 1.28187,-0.53096 1.37561,-0.1811 1.37562,0.1811 1.28186,0.53096 1.10077,0.84465 0.84465,1.10077 0.53096,1.28186 0.1811,1.37562 -0.1811,1.37561 -0.53096,1.28187 -0.84465,1.10076 -1.10077,0.84465 -1.28186,0.53096 -1.37562,0.1811 -1.37561,-0.1811 -1.28187,-0.53096 -1.10076,-0.84465 -0.84465,-1.10076 -0.53096,-1.28187 -0.1811,-1.37561 0.1811,-1.37562 0.53096,-1.28186"
       style="fill:none;stroke:#0000ff;stroke-width:0.35433072;stroke-linecap:round;stroke-linejoin:round;stroke-miterlimit:4;stroke-dasharray:none"
       id="face0-cut"
       inkscape:connector-curvature="0" />
    <path
       d="m 527.26531,856.17575 7.08662,0 0,-34.01575 10.62992,0 0,42.51969 -10.62992,0 0,135 53.1496,0 0,7.08661 24.80315,0 0,-7.08661 109.84252,0 0,7.08661 21.25984,0 0,-281.69292 -46.94882,0 0,12.40158 -24.80314,0 0,-12.40158 -96.55512,0 0,28.34646 -4.25197,0 -0.24148,1.83402 -0.70795,1.70929 -1.1262,1.46764 -1.46769,1.12606 -1.70915,0.70795 -1.83415,0.24095 -65.90551,0 -1.83415,-0.24095 -1.70916,-0.70795 -1.46769,-1.12606 -1.12619,-1.46764 -0.70796,-1.70929 -0.24147,-1.83402 -4.25197,0 0,-28.34646 -79.72441,0 0,304.72442 109.84252,0 0,-83.26772 10.62992,0 0,-90.35433 m -81.21274,99.88547 0.61249,1.08815 0.30997,1.20969 -0.0138,1.24866 -0.33637,1.2026 -0.63617,1.07468 -0.8926,0.87307 -1.08821,0.61264 -1.20965,0.31181 -1.24866,0 -1.20257,-0.33661 -1.07454,-0.63638 -0.87327,-0.89256 -0.61249,-1.08815 -0.30997,-1.20969 0.0138,-1.24866 0.33636,-1.2026 0.63617,-1.07433 0.89261,-0.87342 1.0882,-0.61264 1.20965,-0.30827 1.24866,0 1.20258,0.33662 1.07454,0.63602 0.87327,0.89256 m 0.79172,-33.80882 0.16512,1.23803 -0.16087,1.23803 -0.4759,1.15477 -0.75848,0.99177 -0.9894,0.76181 -1.15286,0.48012 -1.23777,0.16653 -1.23832,-0.15944 -1.1545,-0.47623 -0.99199,-0.75826 -0.76187,-0.98929 -0.47984,-1.153 -0.16512,-1.23767 0.16087,-1.23839 0.4759,-1.15441 0.75848,-0.99213 0.98939,-0.76181 1.15287,-0.47976 1.23777,-0.16654 1.23832,0.15945 1.1545,0.47587 0.99199,0.75827 0.76187,0.98964 0.47984,1.15264 m 252.27143,-5.84362 -10.62993,0 0,-7.08662 10.62993,0 0,7.08662 m -102.75591,-7.08662 10.62992,0 0,7.08662 -10.62992,0 0,-7.08662 m 92.12598,74.40945 10.62993,0 0,7.08662 -10.62993,0 0,-7.08662 m -81.49606,7.08662 -10.62992,0 0,-7.08662 10.62992,0 0,7.08662"
       style="fill:none;stroke:#0000ff;stroke-width:0.35433072;stroke-linecap:round;stroke-linejoin:round;stroke-miterlimit:4;stroke-dasharray:none"
       id="face138-cut"
       inkscape:connector-curvature="0" />
    <path
       d="m 466.60875,655.76695 -1.70915,0.70795 -1.83415,0.24095 0,4.25197 -28.34646,0 0,54.92126 281.69292,0 0,-28.34646 -7.08661,0 0,-74.40945 -53.14857,0 0,-10.62992 58.46388,0 24.8028,0 0,-191.33859 -304.72442,0 0,36.67323 12.40157,0 0,21.25984 -12.40157,0 0,25.68934 30.11811,0 0,7.08555 -30.11811,0 0,39.86291 0,7.08662 0,23.56299 28.34646,0 0,4.25197 1.83415,0.24094 1.70915,0.70795 1.46769,1.12607 1.12619,1.46799 0.70796,1.70894 0.24148,1.83437 0,29.40945 95.6693,0 0,7.08661 -95.6693,0 0,29.40945 -0.24148,1.83401 -0.70796,1.7093 -1.12619,1.46763 -1.46769,1.12713"
       style="fill:none;stroke:#0000ff;stroke-width:0.35433072;stroke-linecap:round;stroke-linejoin:round;stroke-miterlimit:4;stroke-dasharray:none"
       id="face246-cut"
       inkscape:connector-curvature="0" />
    <path
       d="m 393.55582,639.34067 -336.614171,0 0,30.11811 336.614171,0 0,-30.11811"
       style="fill:none;stroke:#0000ff;stroke-width:0.35433072;stroke-linecap:round;stroke-linejoin:round;stroke-miterlimit:4;stroke-dasharray:none"
       id="face292-cut"
       inkscape:connector-curvature="0" />
    <path
       d="m 334.21399,562.93763 0,28.34646 77.95275,0 0,-209.05512 127.55906,0 0,-95.6693 -120.47244,0 0,28.34646 -7.08662,0 0,-28.34646 -209.05511,0 0,95.6693 21.25984,0 0,7.08661 -21.25984,0 0,201.96851 42.51969,0 0,-28.34646 88.58267,0 m 184.80484,-230.65016 0.40575,1.13173 0.099,1.1987 -0.21458,1.18311 -0.51351,1.08709 -0.77743,0.91736 -0.98837,0.68492 -1.13197,0.40571 -1.1984,0.0992 -1.18319,-0.21614 -1.08733,-0.51342 -0.91736,-0.77741 -0.6849,-0.98858 -0.40576,-1.13173 -0.099,-1.19835 0.21458,-1.18346 0.51351,-1.08709 0.77743,-0.91736 0.98838,-0.68492 1.13196,-0.40571 1.19841,-0.0992 1.18318,0.21614 1.08733,0.51343 0.91737,0.7774 0.6849,0.98858 m -79.52495,2.73968 -0.008,-1.20259 0.3032,-1.16363 0.59403,-1.04527 0.84439,-0.85642 1.0372,-0.60838 1.15934,-0.3189 1.20245,0 1.16364,0.30472 1.04551,0.59386 0.85614,0.84437 0.60843,1.03713 0.31925,1.15937 0.008,1.20259 -0.3032,1.16363 -0.59403,1.04527 -0.84439,0.85642 -1.0372,0.60839 -1.15934,0.31889 -1.20245,0 -1.16364,-0.30118 -1.04551,-0.59421 -0.85614,-0.84437 -0.60843,-1.03713 -0.31925,-1.15937 m -80.47674,54.28524 -24.80315,0 0,-7.08661 24.80315,0 0,7.08661 m -88.58268,71.92914 7.08662,0 0,70.86614 -7.08662,0 0,-70.86614"
       style="fill:none;stroke:#0000ff;stroke-width:0.35433072;stroke-linecap:round;stroke-linejoin:round;stroke-miterlimit:4;stroke-dasharray:none"
       id="face303-cut"
       inkscape:connector-curvature="0" />
    <path
       d="m 69.116098,582.16458 39.862212,0 0,-30.11812 7.08661,0 0,30.11812 46.06299,0 0,-274.60631 -21.25984,0 0,-7.08661 -70.866142,0 0,7.08661 -21.25984,0 0,35.43449 60.236222,0 0,63.77953 -60.236222,0 0,175.39229 13.2874,0 7.08661,0"
       style="fill:none;stroke:#0000ff;stroke-width:0.35433072;stroke-linecap:round;stroke-linejoin:round;stroke-miterlimit:4;stroke-dasharray:none"
       id="face373-cut"
       inkscape:connector-curvature="0" />
  </g>
</svg>
